# xmcd
#
# Track frame offsets:
#	150
#	14260
#	26557
#	41475
#	57000
#	78722
#	88067
#	94957
#	115282
#	130587
#	142257
#	154412
#	172752
#	188225
#	200315
#	214025
#	232367
#	244702
#
# Disc length: 3514 seconds
#
# Revision: 0
# Processed by: cddbd v1.5.1PL2 Copyright (c) Steve Scherf et al.
# Submitted via: EasyCDDAExtractor 9.1.0.1
#
DISCID=fa0db812
DTITLE=Various Artist - Tá na Área Futebol Pop
DYEAR=2000
DGENRE=váriada
TTITLE0=Unidade Móvel - Swing Futebol
TTITLE1=Evil Brothers - É Gol, Explode a Galera
TTITLE2=Nenum De Nós - 90 Minutos
TTITLE3=Funk'n Lata - Hora da Virada
TTITLE4=Grave - Bola Bandida
TTITLE5=Faces do Subúrbio - A Hora dos Paladeiros
TTITLE6=Otto - A Revolução do Futebol
TTITLE7=Vinny - Heloisa Mexe A Cadeira "Versão Futebol"
TTITLE8=The Funk Fuckers - Dfunk Fuckers Tá N a Área
TTITLE9=Squaws - O Perigo Tá Na Área
TTITLE10=Rumbora - Pereba
TTITLE11=Jorge Mautner E Nelson Jacobina - O Juís Apitou
TTITLE12=Cabocla - Jogador
TTITLE13=Comunidade Nin-Jitsu - Melô do Analfabeto "Versão Futebol"
TTITLE14=Ultramen - Jonhy
TTITLE15=Rita Ribeiro - Umba Bara Uma
TTITLE16=Pedro Luís e a Parede - Pelada
TTITLE17=Max de Castro - Zagueiro
EXTD=
EXTT0=
EXTT1=
EXTT2=
EXTT3=
EXTT4=
EXTT5=
EXTT6=
EXTT7=
EXTT8=
EXTT9=
EXTT10=
EXTT11=
EXTT12=
EXTT13=
EXTT14=
EXTT15=
EXTT16=
EXTT17=
PLAYORDER=
